<?xml version="1.0" encoding="utf-8"?>
<!-- Generator: Adobe Illustrator 19.0.0, SVG Export Plug-In . SVG Version: 6.00 Build 0)  -->
<svg version="1.1" id="Layer_1" xmlns="http://www.w3.org/2000/svg" xmlns:xlink="http://www.w3.org/1999/xlink" x="0px" y="0px"
	 viewBox="-947 529 24 24" style="enable-background:new -947 529 24 24;" xml:space="preserve">
<style type="text/css">
	.st0{fill:#BABABA;}
</style>
<path class="st0" d="M-941.8,532c-1.2,0-2.2,1-2.2,2.2v13.6c0,1.2,1,2.2,2.2,2.2h13.6c1.2,0,2.2-1,2.2-2.2v-13.6
	c0-1.2-1-2.2-2.2-2.2H-941.8z M-935.737,537.4l-0.1,1.8l-3.6,2l3.3,2v1.8l-5.4-3.4v-0.9C-941.537,540.7-935.737,537.4-935.737,537.4
	z M-933.022,543.285l-0.036-0.462c-0.106-0.96,0.214-2.009,1.103-3.075c0.8-0.942,1.244-1.636,1.244-2.436
	c0-0.907-0.568-1.511-1.688-1.529c-0.641,0-1.351,0.213-1.796,0.551l-0.426-1.12c0.586-0.427,1.6-0.711,2.542-0.711
	c2.045,0,2.969,1.262,2.969,2.613c0,1.209-0.675,2.08-1.528,3.093c-0.782,0.924-1.066,1.707-1.014,2.613l0.018,0.462H-933.022z
	 M-933.414,545.774c0-0.658,0.444-1.12,1.066-1.12s1.049,0.462,1.049,1.12c0,0.622-0.408,1.102-1.066,1.102
	C-932.987,546.876-933.414,546.396-933.414,545.774z"/>
</svg>
